<?xml version="1.0" standalone="no"?>
<!DOCTYPE svg PUBLIC "-//W3C//DTD SVG 20010904//EN"
 "http://www.w3.org/TR/2001/REC-SVG-20010904/DTD/svg10.dtd">
<svg version="1.0" xmlns="http://www.w3.org/2000/svg"
 width="200.000000pt" height="200.000000pt" viewBox="0 0 200.000000 200.000000"
 preserveAspectRatio="xMidYMid meet">
<metadata>
Created by potrace 1.10, written by Peter Selinger 2001-2011
</metadata>
<g transform="translate(0.000000,200.000000) scale(0.100000,-0.100000)"
fill="#000000" stroke="none">
<path d="M814 1851 c-89 -9 -132 -33 -161 -91 -21 -40 -23 -58 -23 -201 0 -87
-4 -168 -9 -181 -5 -13 -36 -53 -70 -90 -34 -36 -61 -71 -61 -77 0 -6 9 -20
20 -31 22 -22 40 -19 85 18 l30 25 5 -484 5 -484 24 -34 c47 -65 83 -73 342
-72 258 0 294 8 340 72 l24 34 5 484 5 484 30 -25 c45 -37 63 -40 85 -18 11
11 20 25 20 31 0 6 -27 41 -61 77 -34 37 -65 77 -70 90 -5 13 -9 94 -9 181 0
143 -2 161 -22 201 -17 33 -35 51 -69 68 -41 20 -63 23 -220 26 -96 3 -206 1
-245 -3z m16 -60 c0 -32 -6 -43 -32 -63 -61 -45 -59 -46 -56 24 3 61 4 63 33
69 54 12 55 11 55 -30z m310 3 c0 -49 10 -64 69 -104 l51 -35 0 -143 c0 -134
-1 -142 -18 -133 -101 54 -352 56 -487 5 -13 -5 -15 12 -15 132 l0 139 51 35
c59 40 69 55 69 104 l0 36 140 0 140 0 0 -36z m113 16 c4 -4 7 -33 5 -64 l-3
-57 -42 31 c-38 28 -43 36 -43 71 l0 40 38 -7 c20 -3 41 -10 45 -14z m-533
-228 l0 -219 -27 -14 c-16 -7 -30 -15 -33 -16 -6 -4 -2 364 5 393 4 20 42 74
51 74 2 0 4 -98 4 -218z m609 160 c5 -15 11 -118 13 -228 l3 -201 -32 25 -33
24 0 221 c0 216 0 220 19 203 11 -10 24 -29 30 -44z m-219 -356 c90 -16 169
-48 200 -81 l23 -24 -33 -94 c-18 -52 -42 -107 -54 -121 l-21 -26 -50 16 c-84
26 -247 29 -335 6 -71 -19 -76 -19 -93 -3 -20 19 -87 190 -87 221 0 35 122 93
230 109 82 13 137 12 220 -3z m-480 -93 c-1 -33 -7 -42 -46 -72 -32 -23 -49
-30 -56 -23 -7 7 6 30 42 71 29 34 55 61 56 61 2 0 4 -17 4 -37z m800 -24 c36
-41 49 -64 42 -71 -7 -7 -24 0 -56 23 -39 30 -45 39 -46 72 0 20 2 37 4 37 1
0 27 -27 56 -61z m-85 -339 c0 -165 -2 -300 -5 -299 -3 0 -23 21 -45 46 l-40
45 -3 107 c-4 117 5 168 59 314 17 48 32 87 33 87 0 0 1 -135 1 -300z m-675
237 c0 -7 14 -48 32 -92 29 -73 32 -91 35 -220 l4 -140 -41 -42 c-22 -24 -42
-43 -43 -43 -1 0 -2 126 -2 279 0 154 3 277 8 274 4 -2 7 -10 7 -16z m488
-134 c66 -14 81 -20 77 -33 -22 -56 -9 -327 20 -402 5 -13 2 -15 -13 -11 -11
3 -52 -2 -91 -11 -89 -20 -213 -20 -302 0 -39 9 -80 14 -91 11 -16 -5 -19 -2
-14 16 26 105 33 345 12 398 -5 12 8 18 66 31 99 21 235 22 336 1z m-442 -430
c-17 -64 -55 -157 -62 -151 -2 3 0 34 4 70 6 46 17 79 36 108 15 23 30 40 32
37 3 -3 -2 -32 -10 -64z m598 14 c15 -26 26 -66 30 -107 8 -83 -6 -70 -45 41
-43 124 -36 155 15 66z m-439 -74 c82 -18 223 -13 299 11 32 10 55 12 66 6 9
-5 34 -42 55 -81 68 -130 58 -240 -27 -286 -29 -16 -61 -18 -268 -18 -207 0
-239 2 -268 18 -84 46 -96 144 -33 274 40 82 63 107 91 97 8 -3 47 -13 85 -21z"/>
<path d="M900 480 c0 -6 38 -10 95 -10 57 0 95 4 95 10 0 6 -38 10 -95 10 -57
0 -95 -4 -95 -10z"/>
</g>
</svg>
